<?xml version="1.0" standalone="no"?>
<!DOCTYPE svg PUBLIC "-//W3C//DTD SVG 20010904//EN"
 "http://www.w3.org/TR/2001/REC-SVG-20010904/DTD/svg10.dtd">
<svg version="1.0" xmlns="http://www.w3.org/2000/svg"
 width="120.000000pt" height="120.000000pt" viewBox="0 0 120.000000 120.000000"
 preserveAspectRatio="xMidYMid meet">
<metadata>
Created by potrace 1.14, written by Peter Selinger 2001-2017
</metadata>
<g transform="translate(0.000000,120.000000) scale(0.100000,-0.100000)"
fill="#000000" stroke="none">
<path d="M287 1090 c-71 -22 -88 -61 -92 -219 l-3 -126 -36 -31 c-46 -40 -48
-74 -7 -104 39 -27 43 -42 46 -170 5 -209 27 -225 303 -221 l72 1 0 35 0 35
-110 0 c-104 0 -112 1 -135 25 -20 19 -25 35 -26 77 -1 48 -5 154 -8 185 -1 7
-15 28 -32 48 l-32 36 27 28 c35 37 42 67 45 191 2 114 11 136 61 143 21 3 26
10 28 40 3 37 3 37 -35 36 -21 0 -51 -5 -66 -9z"/>
<path d="M810 956 c0 -32 3 -37 29 -42 54 -11 61 -29 65 -161 3 -124 14 -158
59 -192 18 -13 18 -14 -2 -28 -39 -27 -53 -71 -56 -177 -2 -56 -4 -109 -4
-119 -1 -9 -10 -25 -21 -35 -20 -17 -24 -18 -55 -21 -11 -1 -15 -12 -15 -39
l0 -39 61 9 c65 9 101 29 119 68 7 14 14 81 17 150 5 131 15 163 53 175 15 5
20 15 20 40 0 27 -6 37 -30 51 -36 22 -41 43 -44 182 -4 157 -31 198 -139 209
l-57 6 0 -37z"/>
<path d="M356 804 c-30 -29 -13 -75 31 -89 26 -7 63 24 63 54 0 27 -26 51 -55
51 -13 0 -31 -7 -39 -16z"/>
<path d="M579 749 c-22 -22 -20 -66 4 -81 58 -37 120 47 65 86 -30 21 -44 20
-69 -5z"/>
</g>
</svg>
